<svg  viewBox="0 0 107 80" fill="none" xmlns="http://www.w3.org/2000/svg">
<path d="M38.8936 49.2363H4.38696V59.8728L38.8936 49.2363Z" fill="#024237"/>
<path d="M42.3603 49.2363H41.1336L4.38696 62.7918H14.2803L42.3603 49.2363Z" fill="#024237"/>
<path d="M67.627 49.2363H102.134V59.8728L67.627 49.2363Z" fill="#024237"/>
<path d="M64.1604 49.2363H65.3871L102.134 62.7918H92.2404L64.1604 49.2363Z" fill="#024237"/>
<path d="M87.8269 62.7918H18.6536L44.4269 49.2363H62.1736L87.8269 62.7918Z" fill="#024237"/>
<path d="M102.134 48.5051L102.174 31.884L92.6936 25.8193V45.8926H90.7069V20.9676L85.0936 17.4488L79.1069 21.0742V45.8926H77.2403V16.4358L71.0269 12.3172L64.7603 16.1959V42.1472H61.8403V16.4091C59.1336 17.6221 57.3469 19.6347 56.2269 22.1939V42.1605H55.0136V3.69336L47.0136 8.85164V42.1472H45.4803V9.85131L34.7869 16.3691V42.0672H32.8003V18.0486L27.7203 21.3142V45.3861H25.9603V25.4195L21.2269 22.1805L16.3469 25.2728V45.3861H14.7869V28.4851L4.34692 34.2698V48.5051H102.147H102.134Z" fill="#024237"/>
<path d="M12.4268 31.2969H11.4001V32.3235H12.4268V31.2969Z" fill="white"/>
<path d="M30.7335 21.5537H29.7068V22.5804H30.7335V21.5537Z" fill="white"/>
<path d="M30.7335 23.2061H29.7068V24.2327H30.7335V23.2061Z" fill="white"/>
<path d="M30.7337 26.459H29.707V27.4857H30.7337V26.459Z" fill="white"/>
<path d="M30.7335 28.3506H29.7068V29.3773H30.7335V28.3506Z" fill="white"/>
<path d="M30.7335 35.0156H29.7068V36.0423H30.7335V35.0156Z" fill="white"/>
<path d="M30.7335 36.8672H29.7068V37.8939H30.7335V36.8672Z" fill="white"/>
<path d="M30.7337 38.4395H29.707V39.4661H30.7337V38.4395Z" fill="white"/>
<path d="M30.7335 40.0537H29.7068V41.0804H30.7335V40.0537Z" fill="white"/>
<path d="M12.4271 36.627H11.4004V37.6536H12.4271V36.627Z" fill="white"/>
<path d="M12.4271 38.4395H11.4004V39.4661H12.4271V38.4395Z" fill="white"/>
<path d="M11.4003 41.1982H12.427V40.1716H11.4003V41.1982Z" fill="white"/>
<path d="M9.69355 41.1982H10.7202V40.1716H9.69355V41.1982Z" fill="white"/>
<path d="M6.41376 41.1982H7.44043V40.1716H6.41376V41.1982Z" fill="white"/>
<path d="M6.41352 42.8916H7.44019V41.8649H6.41352V42.8916Z" fill="white"/>
<path d="M6.41376 37.6543H7.44043V36.6276H6.41376V37.6543Z" fill="white"/>
<path d="M6.41352 35.8818H7.44019V34.8552H6.41352V35.8818Z" fill="white"/>
<path d="M11.4001 44.625H12.4268V43.5983H11.4001V44.625Z" fill="white"/>
<path d="M19.1203 26.459H18.147V28.3523H19.1203V26.459Z" fill="white"/>
<path d="M19.1201 30.0303H18.1467V31.9236H19.1201V30.0303Z" fill="white"/>
<path d="M19.1203 33.3623H18.147V35.2556H19.1203V33.3623Z" fill="white"/>
<path d="M21.5871 33.3623H20.6138V35.2556H21.5871V33.3623Z" fill="white"/>
<path d="M23.947 33.3623H22.9736V35.2556H23.947V33.3623Z" fill="white"/>
<path d="M23.947 40.3857H22.9736V42.2791H23.947V40.3857Z" fill="white"/>
<path d="M19.1203 36.9355H18.147V38.8289H19.1203V36.9355Z" fill="white"/>
<path d="M23.947 26.459H22.9736V28.3523H23.947V26.459Z" fill="white"/>
<path d="M38.1867 44.1318H35.28V47.0918H38.1867V44.1318Z" fill="white"/>
<path d="M41.1333 44.1318H38.8933V47.0918H41.1333V44.1318Z" fill="white"/>
<path d="M46.2534 44.1318H41.8401V47.0918H46.2534V44.1318Z" fill="white"/>
<path d="M48.4134 44.1318H46.9734V47.0918H48.4134V44.1318Z" fill="white"/>
<path d="M50.587 44.1318H49.1204V47.0918H50.587V44.1318Z" fill="white"/>
<path d="M55.9602 44.1318H51.3069V47.0918H55.9602V44.1318Z" fill="white"/>
<path d="M58.6402 44.1318H56.6802V47.0918H58.6402V44.1318Z" fill="white"/>
<path d="M62.3069 44.1318H59.3469V47.0918H62.3069V44.1318Z" fill="white"/>
<path d="M44.2936 17.9141H40.1069V18.8607H44.2936V17.9141Z" fill="white"/>
<path d="M44.2936 19.7012H40.1069V20.6478H44.2936V19.7012Z" fill="white"/>
<path d="M44.2936 21.5H40.1069V22.4467H44.2936V21.5Z" fill="white"/>
<path d="M44.2936 23.2988H40.1069V24.2455H44.2936V23.2988Z" fill="white"/>
<path d="M44.2936 25.085H40.1069V26.0316H44.2936V25.085Z" fill="white"/>
<path d="M44.2936 26.8838H40.1069V27.8305H44.2936V26.8838Z" fill="white"/>
<path d="M44.2936 28.6709H40.1069V29.6176H44.2936V28.6709Z" fill="white"/>
<path d="M44.2936 30.4697H40.1069V31.4164H44.2936V30.4697Z" fill="white"/>
<path d="M44.2936 32.2568H40.1069V33.2035H44.2936V32.2568Z" fill="white"/>
<path d="M44.2936 34.0547H40.1069V35.0014H44.2936V34.0547Z" fill="white"/>
<path d="M44.2936 35.8535H40.1069V36.8002H44.2936V35.8535Z" fill="white"/>
<path d="M44.2936 37.6406H40.1069V38.5873H44.2936V37.6406Z" fill="white"/>
<path d="M44.2936 39.4395H40.1069V40.3861H44.2936V39.4395Z" fill="white"/>
<path d="M44.2936 41.2266H40.1069V42.1732H44.2936V41.2266Z" fill="white"/>
<path d="M53.5203 9.23633H52.2803V10.0763H53.5203V9.23633Z" fill="white"/>
<path d="M53.5203 10.7285H52.2803V11.7018H53.5203V10.7285Z" fill="white"/>
<path d="M53.5203 12.3428H52.2803V13.3161H53.5203V12.3428Z" fill="white"/>
<path d="M53.52 13.875H52.28V14.8483H53.52V13.875Z" fill="white"/>
<path d="M53.52 15.4609H52.28V16.4343H53.52V15.4609Z" fill="white"/>
<path d="M53.5203 17.0615H52.2803V18.0349H53.5203V17.0615Z" fill="white"/>
<path d="M53.52 18.6729H52.28V19.6462H53.52V18.6729Z" fill="white"/>
<path d="M53.5203 20.166H52.2803V21.1393H53.5203V20.166Z" fill="white"/>
<path d="M53.5203 21.7402H52.2803V22.7136H53.5203V21.7402Z" fill="white"/>
<path d="M53.5203 23.4453H52.2803V24.4186H53.5203V23.4453Z" fill="white"/>
<path d="M53.5203 25.0713H52.2803V26.0446H53.5203V25.0713Z" fill="white"/>
<path d="M53.5203 26.5518H52.2803V27.5251H53.5203V26.5518Z" fill="white"/>
<path d="M53.52 28.0166H52.28V28.9899H53.52V28.0166Z" fill="white"/>
<path d="M53.52 29.6172H52.28V30.5905H53.52V29.6172Z" fill="white"/>
<path d="M53.52 31.2969H52.28V32.2702H53.52V31.2969Z" fill="white"/>
<path d="M53.5203 32.8428H52.2803V33.8161H53.5203V32.8428Z" fill="white"/>
<path d="M53.5203 34.3887H52.2803V35.362H53.5203V34.3887Z" fill="white"/>
<path d="M53.5203 36.0264H52.2803V36.9997H53.5203V36.0264Z" fill="white"/>
<path d="M53.5203 37.667H52.2803V38.6403H53.5203V37.667Z" fill="white"/>
<path d="M53.5203 39.1475H52.2803V40.1208H53.5203V39.1475Z" fill="white"/>
<path d="M53.5203 40.7461H52.2803V41.7194H53.5203V40.7461Z" fill="white"/>
<path d="M61.8401 41.7197H58.6401V42.1597H61.8401V41.7197Z" fill="white"/>
<path d="M61.8401 40.7461H58.6401V41.1861H61.8401V40.7461Z" fill="white"/>
<path d="M61.8401 39.7734H58.6401V40.2134H61.8401V39.7734Z" fill="white"/>
<path d="M61.8401 38.8135H58.6401V39.2535H61.8401V38.8135Z" fill="white"/>
<path d="M61.8401 37.8418H58.6401V38.2818H61.8401V37.8418Z" fill="white"/>
<path d="M61.8401 36.8418H58.6401V37.2818H61.8401V36.8418Z" fill="white"/>
<path d="M61.8401 35.9072H58.6401V36.3472H61.8401V35.9072Z" fill="white"/>
<path d="M61.8401 34.9756H58.6401V35.4156H61.8401V34.9756Z" fill="white"/>
<path d="M61.8401 34.042H58.6401V34.482H61.8401V34.042Z" fill="white"/>
<path d="M61.8401 33.1094H58.6401V33.5494H61.8401V33.1094Z" fill="white"/>
<path d="M61.8401 32.1768H58.6401V32.6168H61.8401V32.1768Z" fill="white"/>
<path d="M61.8401 31.2432H58.6401V31.6832H61.8401V31.2432Z" fill="white"/>
<path d="M61.8401 30.3105H58.6401V30.7505H61.8401V30.3105Z" fill="white"/>
<path d="M61.8401 29.376H58.6401V29.816H61.8401V29.376Z" fill="white"/>
<path d="M61.8401 28.4443H58.6401V28.8843H61.8401V28.4443Z" fill="white"/>
<path d="M61.8401 27.5098H58.6401V27.9498H61.8401V27.5098Z" fill="white"/>
<path d="M61.8401 26.5781H58.6401V27.0181H61.8401V26.5781Z" fill="white"/>
<path d="M61.8401 25.6455H58.6401V26.0855H61.8401V25.6455Z" fill="white"/>
<path d="M61.8401 24.7119H58.6401V25.1519H61.8401V24.7119Z" fill="white"/>
<path d="M61.8401 23.7793H58.6401V24.2193H61.8401V23.7793Z" fill="white"/>
<path d="M61.8401 22.8457H58.6401V23.2857H61.8401V22.8457Z" fill="white"/>
<path d="M61.8401 21.9268H58.6401V22.3668H61.8401V21.9268Z" fill="white"/>
<path d="M69.8269 17.0752H66.8936V17.5952H69.8269V17.0752Z" fill="white"/>
<path d="M69.8269 20.833H66.8936V21.353H69.8269V20.833Z" fill="white"/>
<path d="M69.8269 22.8057H66.8936V23.3257H69.8269V22.8057Z" fill="white"/>
<path d="M69.8266 25.4453H66.8933V25.9653H69.8266V25.4453Z" fill="white"/>
<path d="M69.8269 26.498H66.8936V27.018H69.8269V26.498Z" fill="white"/>
<path d="M69.8269 28.1895H66.8936V28.7095H69.8269V28.1895Z" fill="white"/>
<path d="M69.8269 31.5889H66.8936V32.1089H69.8269V31.5889Z" fill="white"/>
<path d="M69.8269 32.5879H66.8936V33.1079H69.8269V32.5879Z" fill="white"/>
<path d="M69.8269 33.5762H66.8936V34.0962H69.8269V33.5762Z" fill="white"/>
<path d="M74.947 17.0752H72.0137V17.5952H74.947V17.0752Z" fill="white"/>
<path d="M74.947 18.0732H72.0137V18.5932H74.947V18.0732Z" fill="white"/>
<path d="M74.947 20.833H72.0137V21.353H74.947V20.833Z" fill="white"/>
<path d="M74.947 21.834H72.0137V22.354H74.947V21.834Z" fill="white"/>
<path d="M74.947 22.8457H72.0137V23.3657H74.947V22.8457Z" fill="white"/>
<path d="M74.9468 23.8447H72.0134V24.3647H74.9468V23.8447Z" fill="white"/>
<path d="M74.947 27.3115H72.0137V27.8315H74.947V27.3115Z" fill="white"/>
<path d="M74.9468 29.124H72.0134V29.644H74.9468V29.124Z" fill="white"/>
<path d="M74.9468 30.124H72.0134V30.644H74.9468V30.124Z" fill="white"/>
<path d="M74.947 31.9082H72.0137V32.4282H74.947V31.9082Z" fill="white"/>
<path d="M74.947 33.5762H72.0137V34.0962H74.947V33.5762Z" fill="white"/>
<path d="M74.9468 35.6016H72.0134V36.1216H74.9468V35.6016Z" fill="white"/>
<path d="M74.9468 37.2812H72.0134V37.8013H74.9468V37.2812Z" fill="white"/>
<path d="M74.9468 38.2803H72.0134V38.8003H74.9468V38.2803Z" fill="white"/>
<path d="M69.8266 37.2812H66.8933V37.8013H69.8266V37.2812Z" fill="white"/>
<path d="M69.8266 38.2803H66.8933V38.8003H69.8266V38.2803Z" fill="white"/>
<path d="M69.8269 39.2539H66.8936V39.7739H69.8269V39.2539Z" fill="white"/>
<path d="M74.9468 40.0938H72.0134V40.6137H74.9468V40.0938Z" fill="white"/>
<path d="M74.9468 41.1191H72.0134V41.6391H74.9468V41.1191Z" fill="white"/>
<path d="M74.9468 41.999H72.0134V42.519H74.9468V41.999Z" fill="white"/>
<path d="M74.947 43.7861H72.0137V44.3061H74.947V43.7861Z" fill="white"/>
<path d="M74.947 44.7324H72.0137V45.2524H74.947V44.7324Z" fill="white"/>
<path d="M69.8269 44.7324H66.8936V45.2524H69.8269V44.7324Z" fill="white"/>
<path d="M69.8269 45.7715H66.8936V46.2915H69.8269V45.7715Z" fill="white"/>
<path d="M69.8269 41.1191H66.8936V41.6391H69.8269V41.1191Z" fill="white"/>
<path d="M69.8269 41.8926H66.8936V42.4126H69.8269V41.8926Z" fill="white"/>
<path d="M69.8269 42.8125H66.8936V43.3325H69.8269V42.8125Z" fill="white"/>
<path d="M82.0004 21.6582H81.2937V22.3649H82.0004V21.6582Z" fill="white"/>
<path d="M82.0004 22.9385H81.2937V23.6451H82.0004V22.9385Z" fill="white"/>
<path d="M82.0001 24.2979H81.2935V25.0045H82.0001V24.2979Z" fill="white"/>
<path d="M84.1737 21.6582H83.467V22.3649H84.1737V21.6582Z" fill="white"/>
<path d="M84.1737 24.2979H83.467V25.0045H84.1737V24.2979Z" fill="white"/>
<path d="M84.1737 25.6035H83.467V26.3102H84.1737V25.6035Z" fill="white"/>
<path d="M84.1737 27.0176H83.467V27.7242H84.1737V27.0176Z" fill="white"/>
<path d="M82.0004 28.3643H81.2937V29.0709H82.0004V28.3643Z" fill="white"/>
<path d="M84.1737 28.3643H83.467V29.0709H84.1737V28.3643Z" fill="white"/>
<path d="M82.0004 29.6963H81.2937V30.403H82.0004V29.6963Z" fill="white"/>
<path d="M82.0001 35.1484H81.2935V35.8551H82.0001V35.1484Z" fill="white"/>
<path d="M81.2936 37.1338H82.0002V36.4271H81.2936V37.1338Z" fill="white"/>
<path d="M81.2936 38.4932H82.0002V37.7865H81.2936V38.4932Z" fill="white"/>
<path d="M81.2936 39.7734H82.0002V39.0668H81.2936V39.7734Z" fill="white"/>
<path d="M84.1737 29.6963H83.467V30.403H84.1737V29.6963Z" fill="white"/>
<path d="M86.2003 21.6582H85.4937V22.3649H86.2003V21.6582Z" fill="white"/>
<path d="M86.2003 27.0176H85.4937V27.7242H86.2003V27.0176Z" fill="white"/>
<path d="M88.3602 21.6582H87.6536V22.3649H88.3602V21.6582Z" fill="white"/>
<path d="M88.3602 27.0176H87.6536V27.7242H88.3602V27.0176Z" fill="white"/>
<path d="M86.2003 28.3643H85.4937V29.0709H86.2003V28.3643Z" fill="white"/>
<path d="M88.3602 28.3643H87.6536V29.0709H88.3602V28.3643Z" fill="white"/>
<path d="M84.1737 33.7754H83.467V34.4821H84.1737V33.7754Z" fill="white"/>
<path d="M84.1735 35.1484H83.4668V35.8551H84.1735V35.1484Z" fill="white"/>
<path d="M84.1737 32.5225H83.467V33.2291H84.1737V32.5225Z" fill="white"/>
<path d="M86.2003 33.7754H85.4937V34.4821H86.2003V33.7754Z" fill="white"/>
<path d="M88.3602 33.7754H87.6536V34.4821H88.3602V33.7754Z" fill="white"/>
<path d="M84.1737 39.0801H83.467V39.7867H84.1737V39.0801Z" fill="white"/>
<path d="M86.2003 39.0801H85.4937V39.7867H86.2003V39.0801Z" fill="white"/>
<path d="M88.3602 39.0801H87.6536V39.7867H88.3602V39.0801Z" fill="white"/>
<path d="M81.2936 43.9199H82.0002V43.2133H81.2936V43.9199Z" fill="white"/>
<path d="M81.2936 45.1973H82.0002V44.4906H81.2936V45.1973Z" fill="white"/>
<path d="M84.1737 44.4922H83.467V45.1989H84.1737V44.4922Z" fill="white"/>
<path d="M86.2003 44.4922H85.4937V45.1989H86.2003V44.4922Z" fill="white"/>
<path d="M88.3602 44.4922H87.6536V45.1989H88.3602V44.4922Z" fill="white"/>
<path d="M88.3602 35.1484H87.6536V35.8551H88.3602V35.1484Z" fill="white"/>
<path d="M88.3602 37.7998H87.6536V38.5065H88.3602V37.7998Z" fill="white"/>
<path d="M88.3602 40.4131H87.6536V41.1198H88.3602V40.4131Z" fill="white"/>
<path d="M100.947 45.9707H93.9869C93.766 45.9707 93.5869 46.1498 93.5869 46.3707V46.384C93.5869 46.6049 93.766 46.784 93.9869 46.784H100.947C101.168 46.784 101.347 46.6049 101.347 46.384V46.3707C101.347 46.1498 101.168 45.9707 100.947 45.9707Z" fill="white"/>
<path d="M100.494 34.0547H94.6936V34.548H100.494V34.0547Z" fill="white"/>
<path d="M100.494 35.1484H94.6936V35.6418H100.494V35.1484Z" fill="white"/>
<path d="M100.494 37.6543H94.6936V38.1476H100.494V37.6543Z" fill="white"/>
<path d="M100.494 40.0791H94.6936V40.5724H100.494V40.0791Z" fill="white"/>
<path d="M100.494 39.6006H94.6936V39.9206H100.494V39.6006Z" fill="white"/>
<path d="M100.494 42.665H94.6936V42.985H100.494V42.665Z" fill="white"/>
<path d="M100.494 43.1719H94.6936V43.4919H100.494V43.1719Z" fill="white"/>
<path d="M100.494 44.4922H94.6936V44.8122H100.494V44.4922Z" fill="white"/>
<path d="M100.494 38.334H94.6936V38.654H100.494V38.334Z" fill="white"/>
<path d="M100.494 36.4941H94.6936V36.8141H100.494V36.4941Z" fill="white"/>
<path d="M100.494 35.8535H94.6936V36.1735H100.494V35.8535Z" fill="white"/>
<path d="M99.9603 31.9362H94.6936V31.6162H99.6669L99.9603 31.9362Z" fill="white"/>
<path d="M99.0136 31.2966H94.6936V30.9766H98.6669L99.0136 31.2966Z" fill="white"/>
<path d="M98.0668 30.6559H94.6667V30.3359H97.7601L98.0668 30.6559Z" fill="white"/>
<path d="M97.6803 42.1582H94.6936V42.3315H97.6803V42.1582Z" fill="white"/>
<path d="M100.494 41.373H97.5068V41.5464H100.494V41.373Z" fill="white"/>
<path d="M100.494 32.4302H94.6936V32.2568H100.28L100.494 32.4302Z" fill="white"/>
<path d="M96.2003 29.311H94.6936V29.1377H95.9336L96.2003 29.311Z" fill="white"/>
<path d="M95.3869 28.8304H94.6936V28.4971H95.0403L95.3869 28.8304Z" fill="white"/>
<path d="M4.17334 76.1898V64.7402H6.09334V74.2571H8.86667V64.7402H10.7867V74.2571H13.6267V64.7402H15.5467V76.1898H4.17334Z" fill="#024237"/>
<path d="M22.9332 76.1884V66.6716H20.0798V71.5633C20.0798 72.8429 20.0398 73.7759 19.9598 74.389C19.8798 75.0022 19.6932 75.4687 19.3998 75.7752C19.1065 76.0951 18.6132 76.2551 17.9465 76.2551C17.7465 76.2551 17.3465 76.2284 16.7332 76.1751V74.3757H17.1465C17.5598 74.3757 17.8265 74.3091 17.9598 74.1758C18.0932 74.0425 18.1598 73.7093 18.1598 73.1894V64.7256H24.8398V76.1751H22.9198L22.9332 76.1884Z" fill="#024237"/>
<path d="M32.5868 76.1898V71.4047H32.1868C31.7468 71.4047 31.4268 71.4447 31.2268 71.538C31.0268 71.6313 30.8401 71.7779 30.6534 72.0045C30.4668 72.2311 30.1334 72.7909 29.6268 73.6973L28.2401 76.1898H25.9468L27.1068 73.9505C27.5734 73.0575 27.9334 72.431 28.2134 72.0845C28.4934 71.7379 28.8268 71.418 29.2401 71.1248C28.4401 70.9782 27.8134 70.6449 27.3868 70.0984C26.9601 69.552 26.7334 68.8322 26.7334 67.9392C26.7334 67.2327 26.8801 66.6196 27.1601 66.1131C27.4401 65.6066 27.8134 65.2467 28.2534 65.0468C28.6934 64.8469 29.4401 64.7402 30.4668 64.7402H34.5201V76.1898H32.6001H32.5868ZM32.5868 66.6729H31.0801C30.2134 66.6729 29.6934 66.6996 29.5201 66.7529C29.2668 66.8329 29.0668 66.9928 28.9201 67.2061C28.7734 67.4193 28.6934 67.7259 28.6934 68.0858C28.6934 68.4457 28.7734 68.7656 28.9201 69.0055C29.0668 69.2454 29.2668 69.392 29.4934 69.4587C29.7201 69.5253 30.2801 69.5653 31.1601 69.5653H32.5868V66.6596V66.6729Z" fill="#024237"/>
<path d="M35.48 76.1898L38.7733 70.2317L35.7866 64.7402H38.0266L39.92 68.1658L41.8133 64.7402H44.04L41.0533 70.2184L44.3466 76.1898H42.0266L39.92 72.311L37.8 76.1898H35.4933H35.48Z" fill="#024237"/>
<path d="M45.3467 76.1898V64.7402H52.4667V66.6729H47.2667V69.2854H49.9867C51.0134 69.2854 51.8267 69.6053 52.4134 70.2317C53 70.8582 53.2934 71.6979 53.2934 72.7376C53.2934 73.6439 53.04 74.4437 52.5467 75.1368C52.0533 75.8299 51.2 76.1764 49.9867 76.1764H45.3467V76.1898ZM47.2667 71.2314V74.2571H49.2934C49.8134 74.2571 50.2 74.2171 50.44 74.1504C50.68 74.0838 50.88 73.9238 51.0533 73.6573C51.2267 73.404 51.32 73.1108 51.32 72.7642C51.32 71.7379 50.6667 71.2314 49.3733 71.2314H47.2667Z" fill="#024237"/>
<path d="M57.4137 72.9508L53.907 64.7402H56.067L58.2803 70.6849L60.2003 64.7402H62.187L58.9736 73.444C58.5736 74.5103 58.187 75.2567 57.827 75.6833C57.4536 76.1098 57.0136 76.3364 56.4936 76.3364C55.9736 76.3364 55.547 76.2831 55.1603 76.1898V74.4837C55.4803 74.5103 55.7203 74.5103 55.8803 74.5103C56.347 74.5103 56.667 74.417 56.867 74.2171C57.0537 74.0171 57.2403 73.6039 57.4137 72.9508Z" fill="#024237"/>
<path d="M70.4935 74.2571H71.3202V78.6823H69.7468V76.1898H63.7335V78.6823H62.1602V74.2571H62.9468C63.2535 73.4573 63.4935 72.4843 63.6668 71.3514C63.8402 70.2184 63.9202 68.5256 63.9202 66.2731V64.7402H70.4935V74.2571ZM68.5735 66.6863H65.7335C65.7335 70.0585 65.4668 72.5909 64.9468 74.2571H68.5602V66.6863H68.5735Z" fill="#024237"/>
<path d="M79.08 71.3768H78.6667V69.644C80.0133 69.7107 80.68 69.1375 80.68 67.8979C80.68 67.4448 80.5467 67.0982 80.2933 66.8316C80.0267 66.5651 79.68 66.4318 79.2266 66.4318C78.44 66.4318 77.9466 66.9116 77.7066 67.8713L75.8266 67.3381C76.2133 65.4721 77.36 64.5391 79.2533 64.5391C80.28 64.5391 81.1067 64.819 81.72 65.3655C82.3467 65.9253 82.6533 66.6317 82.6533 67.5114C82.6533 68.6044 82.1333 69.4708 81.08 70.1372C82.3467 70.6837 82.9867 71.6434 82.9867 73.0162C82.9867 74.0692 82.6667 74.8823 82.0267 75.4821C81.3867 76.0819 80.48 76.3751 79.3067 76.3751C78.32 76.3751 77.5333 76.1752 76.9733 75.7886C76.4133 75.4021 75.9733 74.6424 75.6533 73.5361L77.4133 72.8296C77.5867 73.4827 77.8133 73.9226 78.0933 74.1492C78.3733 74.3758 78.76 74.4824 79.2533 74.4824C79.7866 74.4824 80.2133 74.3358 80.5333 74.0559C80.8533 73.776 81.0133 73.3894 81.0133 72.9229C81.0133 72.4564 80.84 72.0566 80.5067 71.7766C80.1733 71.4967 79.7067 71.3635 79.0933 71.3635L79.08 71.3768Z" fill="#024237"/>
<path d="M84.6799 76.1898V64.7402H91.7999V66.6729H86.5999V69.2854H89.3199C90.3466 69.2854 91.1599 69.6053 91.7466 70.2317C92.3333 70.8582 92.6266 71.6979 92.6266 72.7376C92.6266 73.6439 92.3733 74.4437 91.8799 75.1368C91.3866 75.8299 90.5333 76.1764 89.3199 76.1764H84.6799V76.1898ZM86.5999 71.2314V74.2571H88.6266C89.1466 74.2571 89.5333 74.2171 89.7733 74.1504C90.0133 74.0838 90.2133 73.9238 90.3866 73.6573C90.5599 73.404 90.6533 73.1108 90.6533 72.7642C90.6533 71.7379 89.9999 71.2314 88.7066 71.2314H86.5999Z" fill="#024237"/>
<path d="M94.2134 64.7389H98.0267C99.0667 64.7389 99.8 64.8322 100.227 65.0188C100.653 65.2054 101 65.5386 101.293 66.0052C101.587 66.485 101.733 67.0182 101.733 67.618C101.733 68.1644 101.613 68.6709 101.36 69.1108C101.107 69.5506 100.787 69.8839 100.387 70.0971C100.947 70.2971 101.387 70.6303 101.707 71.1101C102.027 71.59 102.187 72.1764 102.187 72.8562C102.187 73.6826 101.987 74.389 101.573 74.9622C101.16 75.5353 100.68 75.8952 100.133 76.0285C99.7467 76.1218 98.8534 76.1751 97.4534 76.1751H94.2134V64.7256V64.7389ZM96.1334 66.6449V69.2974H97.4C98.16 69.2974 98.6267 69.2974 98.8134 69.2574C99.1467 69.2041 99.4 69.0708 99.5867 68.8442C99.7734 68.6176 99.8667 68.3244 99.8667 67.9378C99.8667 67.6046 99.7867 67.3247 99.64 67.1115C99.4934 66.8982 99.3067 66.7649 99.0934 66.7116C98.88 66.6583 98.2667 66.6316 97.2534 66.6316H96.1467L96.1334 66.6449ZM96.1334 71.2034V74.2557H97.92C98.7067 74.2557 99.2 74.2158 99.4267 74.1358C99.6534 74.0558 99.84 73.8959 99.9867 73.6559C100.133 73.416 100.213 73.1228 100.213 72.7629C100.213 72.403 100.133 72.0831 99.9734 71.8432C99.8134 71.6033 99.6 71.43 99.3334 71.35C99.0667 71.2567 98.52 71.2168 97.6934 71.2168H96.1334V71.2034Z" fill="#024237"/>
<path d="M54.2936 50.6901H52.2803L52.3603 49.6768H54.1869L54.2936 50.6901Z" fill="white"/>
<path d="M54.4802 52.7696H52.0669L52.1602 51.5029H54.3602L54.4802 52.7696Z" fill="white"/>
<path d="M54.8668 55.4225H51.6802L51.8135 53.7559H54.6935L54.8668 55.4225Z" fill="white"/>
<path d="M55.1601 58.7137H51.4001L51.5468 56.8604H54.9601L55.1601 58.7137Z" fill="white"/>
<path d="M55.6536 62.4195H50.8936L51.0802 60.2861H55.4136L55.6536 62.4195Z" fill="white"/>
</svg>
